<?xml version="1.0" encoding="UTF-8"?>
<svg width="237px" height="149px" viewBox="0 0 237 149" version="1.1" xmlns="http://www.w3.org/2000/svg" xmlns:xlink="http://www.w3.org/1999/xlink">
    <!-- Generator: Sketch 50.2 (55047) - http://www.bohemiancoding.com/sketch -->
    <title>logo-work-2</title>
    <desc>Created with Sketch.</desc>
    <defs></defs>
    <g id="logo-work-2" stroke="none" stroke-width="1" fill="none" fill-rule="evenodd">
        <g id="logo" opacity="0.176729911" transform="translate(25.000000, 15.000000)" stroke-linecap="square" stroke-width="10">
            <path d="M140.090444,67.1899441 L186.680887,113.681564" id="Line" stroke="#353B3F" stroke-dasharray="5,2,5"></path>
            <path d="M46.9095563,37.8938547 L92.6774722,83.5646917" id="Line" stroke="#919191"></path>
            <path d="M0.319112628,84.3854749 L46.9095563,37.8938547" id="Line" stroke="#919191"></path>
            <path d="M92.8617747,83.7486034 L176.531378,0.256473178" id="Line" stroke="#919191"></path>
            <path d="M47.5477816,66.5530726 L93.3156974,112.22391" id="Line" stroke="#353B3F"></path>
            <path d="M93.5,112.407821 L139.452218,66.5530726" id="Line" stroke="#353B3F"></path>
        </g>
        <g id="Group" transform="translate(95.000000, 41.000000)" fill-rule="nonzero">
            <polygon id="Shape" fill="#000000" points="41.2 20.7 45.1 17 41.2 13.3 40.2 14.4 42.9 17 40.2 19.6"></polygon>
            <polygon id="Shape" fill="#000000" points="31.8 19.6 29 17 31.8 14.4 30.7 13.3 26.8 17 30.7 20.7"></polygon>
            <rect id="Rectangle-path" fill="#000000" transform="translate(35.938275, 16.989445) rotate(26.301135) translate(-35.938275, -16.989445) " x="35.1882563" y="9.98927049" width="1.50003739" height="14.000349"></rect>
            <rect id="Rectangle-path" fill="#000000" x="4.5" y="18" width="5.7" height="1.5"></rect>
            <rect id="Rectangle-path" fill="#000000" x="15.1" y="18" width="1.5" height="1.5"></rect>
            <rect id="Rectangle-path" fill="#000000" x="11.9" y="18" width="1.5" height="1.5"></rect>
            <rect id="Rectangle-path" fill="#000000" x="4.5" y="22.7" width="2.6" height="1.5"></rect>
            <rect id="Rectangle-path" fill="#000000" x="8.8" y="22.7" width="2.9" height="1.5"></rect>
            <rect id="Rectangle-path" fill="#000000" x="13.7" y="22.7" width="11.1" height="1.5"></rect>
            <rect id="Rectangle-path" fill="#000000" x="34" y="41.7" width="2.4" height="1.5"></rect>
            <rect id="Rectangle-path" fill="#A23A99" x="21.4" y="41.7" width="10.9" height="1.5"></rect>
            <rect id="Rectangle-path" fill="#A23A99" x="4.5" y="41.7" width="14.9" height="1.5"></rect>
            <rect id="Rectangle-path" fill="#A23A99" x="11.7" y="51.2" width="5.6" height="1.5"></rect>
            <rect id="Rectangle-path" fill="#A23A99" x="19.1" y="51.2" width="10.9" height="1.5"></rect>
            <rect id="Rectangle-path" fill="#A23A99" x="31.9" y="51.2" width="12.6" height="1.5"></rect>
            <rect id="Rectangle-path" fill="#A23A99" x="36" y="32.2" width="1.5" height="1.5"></rect>
            <rect id="Rectangle-path" fill="#A23A99" x="19.3" y="32.2" width="14.7" height="1.5"></rect>
            <rect id="Rectangle-path" fill="#A23A99" x="11.7" y="32.2" width="5.8" height="1.5"></rect>
            <rect id="Rectangle-path" fill="#A23A99" x="39.3" y="32.2" width="5.2" height="1.5"></rect>
            <rect id="Rectangle-path" fill="#A23A99" x="11.7" y="27.5" width="7.6" height="1.5"></rect>
            <rect id="Rectangle-path" fill="#A23A99" x="33.7" y="27.5" width="10.7" height="1.5"></rect>
            <rect id="Rectangle-path" fill="#A23A99" x="24.2" y="27.5" width="1.5" height="1.5"></rect>
            <rect id="Rectangle-path" fill="#A23A99" x="30.6" y="27.5" width="1.5" height="1.5"></rect>
            <rect id="Rectangle-path" fill="#A23A99" x="21" y="27.5" width="1.5" height="1.5"></rect>
            <rect id="Rectangle-path" fill="#A23A99" x="27.4" y="27.5" width="1.5" height="1.5"></rect>
            <rect id="Rectangle-path" fill="#A23A99" x="35.2" y="46.5" width="4.4" height="1.5"></rect>
            <rect id="Rectangle-path" fill="#A23A99" x="41.4" y="46.5" width="3" height="1.5"></rect>
            <rect id="Rectangle-path" fill="#A23A99" x="11.7" y="46.5" width="12.3" height="1.5"></rect>
            <rect id="Rectangle-path" fill="#A23A99" x="28.9" y="46.5" width="1.5" height="1.5"></rect>
            <rect id="Rectangle-path" fill="#A23A99" x="32.1" y="46.5" width="1.5" height="1.5"></rect>
            <rect id="Rectangle-path" fill="#A23A99" x="25.7" y="46.5" width="1.5" height="1.5"></rect>
            <rect id="Rectangle-path" fill="#A23A99" x="11.9" y="37" width="11.3" height="1.5"></rect>
            <rect id="Rectangle-path" fill="#A23A99" x="25" y="37" width="6.2" height="1.5"></rect>
            <rect id="Rectangle-path" fill="#A23A99" x="7.7" y="37" width="1.5" height="1.5"></rect>
            <rect id="Rectangle-path" fill="#A23A99" x="4.5" y="37" width="1.5" height="1.5"></rect>
            <path d="M54.8,0.7 L7,0.7 L7,6.3 L0.2,6.3 L0.2,56.3 L10.1,66.2 L49.3,66.2 L49.3,60.1 L54.9,60.1 L54.9,0.7 L54.8,0.7 Z M9.6,63.7 L2.7,56.8 L9.6,56.8 L9.6,63.7 Z M47.8,64.7 L11.1,64.7 L11.1,55.2 L1.7,55.2 L1.7,7.8 L47.8,7.8 L47.8,64.7 Z M53.3,58.7 L49.2,58.7 L49.2,6.3 L8.5,6.3 L8.5,2.2 L53.4,2.2 L53.4,58.7 L53.3,58.7 Z" id="Shape" fill="#A23A99"></path>
        </g>
    </g>
</svg>